<svg width="512" height="512" viewBox="0 0 512 512" fill="none" xmlns="http://www.w3.org/2000/svg">
  <!-- Premium Dark Background -->
  <rect width="512" height="512" rx="120" fill="url(#bg_grad)"/>
  
  <!-- Subtle Outer Glow -->
  <circle cx="256" cy="252" r="120" fill="url(#outer_glow)" fill-opacity="0.3"/>
  
  <!-- Taegeuk Symbol -->
  <!-- Yang (Red) -->
  <path d="M256 132C311.228 132 356 176.772 356 232C356 287.228 311.228 332 256 332C200.772 332 156 287.228 156 232C156 204.386 178.386 182 206 182C233.614 182 256 204.386 256 232C256 259.614 278.386 282 306 282C333.614 282 356 259.614 356 232C356 176.772 311.228 132 256 132Z" fill="url(#yang_grad)"/>
  
  <!-- Eum (Blue) -->
  <path d="M256 332C200.772 332 156 287.228 156 232C156 176.772 200.772 132 256 132C311.228 132 356 176.772 356 232C356 259.614 333.614 282 306 282C278.386 282 256 259.614 256 232C256 204.386 233.614 182 206 182C178.386 182 156 204.386 156 232C156 287.228 200.772 332 256 332Z" fill="url(#eum_grad)"/>

  <!-- Gem / Sparkle Detail (The "Gem" in K-Gem) -->
  <path d="M390 120L410 140L390 160L370 140L390 120Z" fill="url(#gem_grad)"/>
  <path d="M420 160L430 170L420 180L410 170L420 160Z" fill="#FACC15" fill-opacity="0.5"/>

  <!-- Trigrams (Gun, Gon, Gam, Ri) - Minimalist representation -->
  <rect x="180" y="360" width="40" height="8" rx="4" fill="#4B5563"/>
  <rect x="236" y="360" width="40" height="8" rx="4" fill="#4B5563"/>
  <rect x="292" y="360" width="40" height="8" rx="4" fill="#4B5563"/>

  <defs>
    <linearGradient id="bg_grad" x1="0" y1="0" x2="512" y2="512" gradientUnits="userSpaceOnUse">
      <stop stop-color="#0F172A"/>
      <stop offset="1" stop-color="#1E293B"/>
    </linearGradient>
    <radialGradient id="outer_glow" cx="0" cy="0" r="1" gradientUnits="userSpaceOnUse" gradientTransform="translate(256 232) rotate(90) scale(150)">
      <stop stop-color="#6366F1"/>
      <stop offset="1" stop-color="#0F172A" stop-opacity="0"/>
    </radialGradient>
    <linearGradient id="yang_grad" x1="256" y1="132" x2="256" y2="282" gradientUnits="userSpaceOnUse">
      <stop stop-color="#FF4D4D"/>
      <stop offset="1" stop-color="#CC0000"/>
    </linearGradient>
    <linearGradient id="eum_grad" x1="256" y1="182" x2="256" y2="332" gradientUnits="userSpaceOnUse">
      <stop stop-color="#4D79FF"/>
      <stop offset="1" stop-color="#0033CC"/>
    </linearGradient>
    <linearGradient id="gem_grad" x1="370" y1="120" x2="410" y2="160" gradientUnits="userSpaceOnUse">
      <stop stop-color="#FDE047"/>
      <stop offset="1" stop-color="#EAB308"/>
    </linearGradient>
  </defs>
</svg>
